<svg height="512pt" viewBox="-72 0 512 512" width="512pt" xmlns="http://www.w3.org/2000/svg" fill="white" style="background-color:rgba(0,0,0,0.0)"><path d="m150.8125 258.871094c3.25-2.570313 3.796875-7.285156 1.226562-10.535156-53.632812-67.78125-64.894531-111.707032-64.894531-136.625 0-53.328126 43.382813-96.710938 96.710938-96.710938 53.324219 0 96.707031 43.382812 96.707031 96.710938 0 65.925781-75.777344 151.234374-96.714844 173.542968-2.679687-2.84375-6.242187-6.703125-10.410156-11.398437-2.75-3.097657-7.488281-3.378907-10.585938-.628907-3.097656 2.75-3.382812 7.488282-.632812 10.585938 9.664062 10.890625 16.0625 17.304688 16.332031 17.570312 1.40625 1.40625 3.3125 2.199219 5.304688 2.199219 1.988281 0 3.894531-.792969 5.300781-2.199219 4.347656-4.34375 106.40625-107.351562 106.40625-189.671874 0-61.597657-50.109375-111.710938-111.707031-111.710938-61.597657 0-111.710938 50.113281-111.710938 111.710938 0 49.453124 37.050781 106.65625 68.132813 145.933593 2.570312 3.246094 7.285156 3.796875 10.535156 1.226563zm0 0"/><path d="m144.289062 79.644531v72.144531c0 4.144532 3.359376 7.5 7.5 7.5 4.144532 0 7.5-3.355468 7.5-7.5v-72.144531c0-4.140625-3.355468-7.5-7.5-7.5-4.140624 0-7.5 3.359375-7.5 7.5zm0 0"/><path d="m191.355469 151.789062v-24.5625h12.539062c15.1875 0 27.542969-12.355468 27.542969-27.539062 0-15.1875-12.355469-27.542969-27.542969-27.542969h-20.039062c-4.140625 0-7.5 3.359375-7.5 7.5v72.144531c0 4.144532 3.359375 7.5 7.5 7.5s7.5-3.355468 7.5-7.5zm0-64.644531h12.539062c6.917969 0 12.542969 5.625 12.542969 12.542969 0 6.914062-5.625 12.539062-12.542969 12.539062h-12.539062zm0 0"/></svg>